/* XPM */
static char *result[] = {
/* columns rows colors chars-per-pixel */
"32 32 221 2 ",
"   c #000000",
".  c #0B0505",
"X  c #0B0905",
"o  c #0D0B0A",
"O  c #070807",
"+  c #160E07",
"@  c #130E0B",
"#  c #190D0C",
"$  c #150700",
"%  c #14120D",
"&  c #1A130D",
"*  c #151412",
"=  c #1D1612",
"-  c #1B1B15",
";  c #1C1E1A",
":  c #1E1518",
">  c #29170D",
",  c #26160C",
"<  c #351D0F",
"1  c #211712",
"2  c #231C15",
"3  c #221E1B",
"4  c #321F15",
"5  c #1F2116",
"6  c #232016",
"7  c #26231B",
"8  c #2A251D",
"9  c #2D2016",
"0  c #34221B",
"q  c #362417",
"w  c #222321",
"e  c #2B2622",
"r  c #242927",
"t  c #2A2A23",
"y  c #332B24",
"u  c #3A2923",
"i  c #382F29",
"p  c #2D3024",
"a  c #3C3225",
"s  c #35342C",
"d  c #3E342B",
"f  c #343127",
"g  c #353632",
"h  c #3D3532",
"j  c #3A3930",
"k  c #3C3D39",
"l  c #323830",
"z  c #452819",
"x  c #512E16",
"c  c #422F25",
"v  c #492F28",
"b  c #44342C",
"n  c #4B342C",
"m  c #493726",
"M  c #513A2C",
"N  c #5B3521",
"B  c #453530",
"V  c #433E3B",
"C  c #633726",
"Z  c #3F4035",
"A  c #454234",
"S  c #4E433D",
"D  c #45443D",
"F  c #534130",
"G  c #5C4434",
"H  c #52483B",
"J  c #674129",
"K  c #614233",
"L  c #6B4B37",
"P  c #724C31",
"I  c #7B4E39",
"U  c #745136",
"Y  c #7B5335",
"T  c #7F563E",
"R  c #484140",
"E  c #464945",
"W  c #544D43",
"Q  c #594942",
"!  c #554742",
"~  c #5E5B4D",
"^  c #5A5B53",
"/  c #674B41",
"(  c #744940",
")  c #625643",
"_  c #64534C",
"`  c #6F5A49",
"'  c #695A4A",
"]  c #7D5441",
"[  c #745944",
"{  c #745E4C",
"}  c #775946",
"|  c #625A51",
" . c #735E53",
".. c #6F6048",
"X. c #74614C",
"o. c #7B624B",
"O. c #68645A",
"+. c #776D5D",
"@. c #7B6B5B",
"#. c #746758",
"$. c #786B65",
"%. c #777267",
"&. c #757871",
"*. c #81493C",
"=. c #89553C",
"-. c #80573F",
";. c #825D42",
":. c #895D43",
">. c #865B47",
",. c #945E4B",
"<. c #915F47",
"1. c #8C644C",
"2. c #876448",
"3. c #93634B",
"4. c #9B614F",
"5. c #926B4D",
"6. c #996C4C",
"7. c #816D56",
"8. c #8B6C53",
"9. c #836F5A",
"0. c #896854",
"q. c #946551",
"w. c #926B54",
"e. c #9B6D53",
"r. c #956C5A",
"t. c #9E6F5A",
"y. c #9D6250",
"u. c #887357",
"i. c #937154",
"p. c #9C7153",
"a. c #9D745C",
"s. c #97755A",
"d. c #A36B55",
"f. c #A66F5B",
"g. c #A37554",
"h. c #A4745C",
"j. c #AA755E",
"k. c #AA7D5D",
"l. c #B07D5D",
"z. c #8B6C61",
"x. c #806F64",
"c. c #837365",
"v. c #897766",
"b. c #9B7761",
"n. c #977860",
"m. c #9C7A62",
"M. c #9A7A6A",
"N. c #837F7A",
"B. c #8C7C76",
"V. c #AA7763",
"C. c #A37D65",
"Z. c #AB7C63",
"A. c #A97C68",
"S. c #B27D64",
"D. c #B77E69",
"F. c #B0825E",
"G. c #96826A",
"H. c #8B847B",
"J. c #958470",
"K. c #958479",
"L. c #A4816C",
"P. c #AC846A",
"I. c #AE8B6D",
"U. c #A58367",
"Y. c #B38465",
"T. c #B3836A",
"R. c #BB856C",
"E. c #B5896A",
"W. c #BC8B6C",
"Q. c #B78867",
"!. c #B8916E",
"~. c #A68472",
"^. c #AB8372",
"/. c #AC8D73",
"(. c #A98B79",
"). c #A58E72",
"_. c #B48A72",
"`. c #BC8C72",
"'. c #BC8E79",
"]. c #B48A77",
"[. c #A4947D",
"{. c #AD907D",
"}. c #B69276",
"|. c #BA9374",
" X c #B5927B",
".X c #BB967A",
"XX c #BA997C",
"oX c #C08E6F",
"OX c #C1926D",
"+X c #C08E71",
"@X c #C29375",
"#X c #C49977",
"$X c #C4967C",
"%X c #C69B7D",
"&X c #8D8883",
"*X c #928F82",
"=X c #979688",
"-X c #AE9A84",
";X c #A29D8C",
":X c #AB9E88",
">X c #AE9480",
",X c #B99882",
"<X c #ABA48B",
"1X c #BAA48B",
"2X c #B1A590",
"3X c #B0AFA7",
"4X c #BBABA6",
"5X c #C59C82",
"6X c #C99985",
"7X c #C79C87",
"8X c #CCAA8B",
"9X c #C9A489",
"0X c #D3A489",
"qX c #CCA790",
"wX c #C3A891",
"eX c #D7A996",
"rX c #CDBD9F",
"tX c #DABA9E",
"yX c #C8B9A6",
"uX c #CCBFB5",
"iX c #DEC2B4",
/* pixels */
"                          ; E g * r E s -                       ",
"                    O X * s s t e r E ) W 5 O                   ",
"                  % 8 & 5 ; X . . * 7 d l l p                   ",
"                o - % # ; ; # 1 2 e y y 7 % p 5                 ",
"            O @ * o o & q m K [ o.` m , 2 - & 6 @               ",
"            8 3 o . # c P ;.e.l.U.C.X.< $ + & 7 s O             ",
"          - f @ . , m 2.p.g.l.F.F.Q.P.U , . o = 8 - O           ",
"          t X   # v T g.h.Z.Y.Q.W.OXW.U.G + O % & 5 -           ",
"        * g r D | _ ` 8.a.C.Z.P.Y.Q.E.P.i.m O O % - g O         ",
"      - k ^ *X;X;X;X=X:X<X-X1X1X/.).[.J.F.;.- O % % A w         ",
"      O.&.&.$.#.#.@.c.%.c.J.[.:X<X2XyXiXtXXXj   O & 6 Z O       ",
"      &X$.N.! B b c H B.B.9.o.[ ` { @.K.1XrX*XZ o % @ s -       ",
"      %.h h _ L M B | 4XiX X1.L n q c W X.u.<X3XR . . 7 j       ",
"      O.e e { u.J.9.' @.(.}.h.} M a A H o.2.u.iX&X1 . = V       ",
"      &.e B r.m.L.n.0.r.Z._./.n.o...@.o.8.I.s.M.B.h . & a       ",
"      =X|  .M.^.M.w.i..X0XW._._..X1X).G.P.!.|.(.x.y . , u       ",
"      &.H.c.A.{.L.5.5.|.0X@X_.R._.XX}._.$X@X.X{.#.4 , > q       ",
"      g ~ #.^.^.n.2.T k.oXj.Y.Z.A.'.5X0X7X5X.X{.v.C z < 0       ",
"      * | 9.C.q.Y P P :.g.6.5.a.a.].7XeXqX7X9XyX(.3.C q 9       ",
"        D J.a.Y Y ] -.:.6.Y.V.f.:.3.'.6X6X,XwXqX^.r.N z &       ",
"        o $.r.Y J ( *.=.3.f.D.oXh.>.Z.$X$X5X}.Q.$X{ < &         ",
"          B r.,.x / b.5.3.4.y.d.V.3.1.`.$X5X}.|._.F +           ",
"          3 9.a.N K  X8XqX6X$XA.-.P ;.E.$X%X^.o.L 8             ",
"          o _ w.Y N [ /.qX7XqX XP U e.E.%X5X8.m t O             ",
"            d 7.;.*.*.=.1.3.y.,.t.T.l.#X9X.XF %                 ",
"            3 @.1.<.4.4.4.d.d.V.`.Y.E.#X8X@.@                   ",
"            O S 0.1.e.f.f.S.R.+XW.Y.!.#X#Xa                     ",
"              * { q.y.e.V.S.R.R.W.|.#X#Xo.o                     ",
"                S 8.3.<.p.V.P.W.@X@X|.2.2                       ",
"                h z.e.e.h.V.T.W.+Xb.B @                         ",
"                * Q 1.V.V.Z.A.8.F 2                             ",
"                  : G w.2.( / u X                               "
};
