/* XPM */
static char *_b5c160a13394ddbe7e929493567c7afMS3K5bXMCE97PEDC[] = {
/* columns rows colors chars-per-pixel */
"29 32 21 1 ",
"  c None",
". c black",
"X c #000402",
"o c #002F17",
"O c #152F11",
"+ c #004723",
"@ c #004C25",
"# c #004F27",
"$ c #005E2E",
"% c #007037",
"& c #008541",
"* c #009D4C",
"= c #009E4D",
"- c #04A050",
"; c #5DD24D",
": c #61DC51",
"> c #64E253",
", c #65E554",
"< c #C3E8D5",
"1 c #FEFEFE",
"2 c white",
/* pixels */
"                             ",
"       ====.     ====#       ",
"      ==222=    ==22==       ",
"      22...2=====2...2=      ",
"      -....2=====2...2o      ",
"      %2...======2...2       ",
"      ==<2=========2==       ",
"      =================      ",
"      =================      ",
"      ,,,,.=======,,,,,      ",
"      ,,,,,,,,,,,,,,,,,      ",
"      ,,,,,,,,,,,,,,,,,      ",
"      .,,,,,,,,,,,,,,,       ",
"       >,,,,,,,,,,,,,        ",
"        .,,,,,,,,,,,=        ",
"  ===== ===.,,,,,O=========  ",
" =========,,,,,,,,,========= ",
" =========,,,,,,,,,========= ",
" =====.===,,,,,,,,,,======== ",
" ========,,,,,,,,,,,===.==== ",
" =====&==,,,,,,,,,,,======== ",
" =====+===,,,,,,,,,,======== ",
" =========,,,,,,,,,========= ",
" ===========,,,,,,====X====. ",
"  ===========,,,:==========  ",
"  ===========$,,==========.  ",
"   ===========,===========   ",
"    .=========;=========     ",
" =====================#===== ",
"=========================.==.",
"  .===.======= .======.===   ",
"                             "
};
