/* XPM */
static char *result[] = {
/* columns rows colors chars-per-pixel */
"32 32 147 2 ",
"   c #27311A",
".  c #323C1A",
"X  c #3C491F",
"o  c #334520",
"O  c #3B4A25",
"+  c #3F4E2E",
"@  c #3D5423",
"#  c #3F532A",
"$  c #3D5533",
"%  c #43552C",
"&  c #445B2C",
"*  c #4D5B2A",
"=  c #425331",
"-  c #4C5435",
";  c #435833",
":  c #4B5B33",
">  c #515E35",
",  c #4B622D",
"<  c #52652F",
"1  c #4B6434",
"2  c #4D6936",
"3  c #4E643B",
"4  c #536235",
"5  c #556D33",
"6  c #586C33",
"7  c #536439",
"8  c #556B3D",
"9  c #5A6B3C",
"0  c #59723A",
"q  c #60743A",
"w  c #647F3F",
"e  c #5B6E41",
"r  c #5C7343",
"t  c #5D7A45",
"y  c #5D744C",
"u  c #657443",
"i  c #647B43",
"p  c #6A7E45",
"a  c #647A4B",
"s  c #6A7C4C",
"d  c #657C50",
"f  c #6C7F53",
"g  c #688546",
"h  c #67854A",
"j  c #6D844C",
"k  c #6E894E",
"l  c #72854E",
"z  c #728B4B",
"x  c #668251",
"c  c #6C8453",
"v  c #6F8954",
"b  c #728553",
"n  c #748A53",
"m  c #7A8D53",
"M  c #72875A",
"N  c #768B5B",
"B  c #7A8C5B",
"V  c #779156",
"C  c #7C9355",
"Z  c #77955A",
"A  c #7B925B",
"S  c #738D62",
"D  c #769260",
"F  c #7E9560",
"G  c #7D9863",
"H  c #87954F",
"J  c #83945C",
"K  c #8A975F",
"L  c #839A5C",
"P  c #8A9D5E",
"I  c #8DA35F",
"U  c #839562",
"Y  c #8A9660",
"T  c #849B63",
"R  c #8A9C63",
"E  c #84946C",
"W  c #849C6A",
"Q  c #8A9F69",
"!  c #919F65",
"~  c #919E6C",
"^  c #86A166",
"/  c #8DA265",
"(  c #8EA864",
")  c #8DA36B",
"_  c #93A366",
"`  c #95A965",
"'  c #93A46B",
"]  c #99A66B",
"[  c #94AA6D",
"{  c #9AAB6D",
"}  c #9DB06D",
"|  c #8BA373",
" . c #8EA974",
".. c #92A671",
"X. c #96AA72",
"o. c #9CAC73",
"O. c #9BAE78",
"+. c #97B076",
"@. c #9DB174",
"#. c #9DB37A",
"$. c #A2B16E",
"%. c #A2AE74",
"&. c #A2AE78",
"*. c #A3B374",
"=. c #A9B675",
"-. c #A6B976",
";. c #ACBA76",
":. c #A4B47A",
">. c #A9B77C",
",. c #A6BA7B",
"<. c #ABBB7C",
"1. c #B0BE75",
"2. c #B0BB7D",
"3. c #ACC17E",
"4. c #B2C27E",
"5. c #A2B581",
"6. c #A5BA81",
"7. c #ADBC83",
"8. c #AAB688",
"9. c #ACBF88",
"0. c #B1BF83",
"q. c #B0BC8D",
"w. c #AEC183",
"e. c #ADC089",
"r. c #B3C384",
"t. c #B9C686",
"y. c #BAC987",
"u. c #B4C58A",
"i. c #B9C68B",
"p. c #B6C98B",
"a. c #BBCA8C",
"s. c #B5C490",
"d. c #BAC692",
"f. c #BCCC93",
"g. c #BDCD9A",
"h. c #BDD094",
"j. c #C2CD8E",
"k. c #C1CF93",
"l. c #C1D194",
"z. c #C5D39A",
"x. c #C9D59C",
"c. c #CBD99B",
"v. c #C6D8A2",
"b. c #CDDCA4",
"n. c #CDD9AF",
"m. c #D2DEA5",
"M. c #D7E0B3",
/* pixels */
"  . O O : 7 > : e 3 > 9 e 4 8 7 4 : > p s 3 8 O 4 = - $ - . O   ",
"O r 9 a B N B U ' Y J b M j c R a J B f B S M s f y s r e > % O ",
"@ i v j N A X.' X....._ R T Q J O...5.~ ~ Y f M M A E b b N 8 % ",
"2 0 a n ) B o.#.:.9.' / ' :.{ <.:.6.X.@.5.&.o.] ' B A B j d p O ",
"6 g s / q.@...-.7.,.] :.P =.,.[ #.u.<.,.7.f._ ' &.8...X.' c M 1 ",
"& n _ ` :.-.7.2.0.u.<.*.<.o.,.,.p.7.z.k.7.<.<.` <.&.] o...l F , ",
", L Z *.p.q.7.y.<.p.f.a.z.a.<.a.b.f.u.l.u.i.O.y.6.:.,.>.6.' V , ",
"5 / R { r.y.g.-.;.p.u.3.c.c.b.,.m.p.f.7.t.u.u.{ 7.7.,.@...( U % ",
"k / ( ( u.,.p.7.r.r.y.e.r.z.c.u.4.<.<.{ r.y.-.=.t.r.a.,.[ ..l , ",
"k L } / 7.u.7.s.i.r.>.x.y.f.l.j.,.*.*.@.r.*.4.:.u.7.o.*.*.@./ 0 ",
"V L -.-.] y.u.u.u.0.g.0.w.h.h.t.<.=.<.y.f.r.y.r.0.<.0.e.6.R / & ",
"j { ,.<.:.u.u.d.a.z.k.t.f.c.;.,.a.y.u.p.a.0.w.<.<.0.0.0.e.@.L j ",
"C R p.u.:.f.r.x.2.u.<.h.y.h.r.*.r.<.u.y.h.a.,.*.,.6.y.u.#.) L < ",
"C [ ( I *.7.0.e.7.a.y.j.M.p.r.<.u.<.l.u.7.l.k.:.7.:.r.,.7._ @.z ",
"g H ^ :.7.7.*.-.u.7.f.a.p.j.e.3.p.f.7.u.r.r.f.<.4.*.i.o.{ ) L 1 ",
"q z C ` @.:.7.<.4.$.r.<.<.r.c.,.u.3.:.y.7.;.@.,.:.,.*.,.,.5.( 5 ",
"4 m m 7.=.<.j.a.,.r.7.z.y.<.0.-.,.' =.7.k.<.<.<.p.r.<.,.@.O.n 2 ",
"g C R *.8.&.0.y.{ *.<.u.t.x.0.p.,.r.<.,.e.7.*.7.r.i.a.r.<.,./ w ",
"z ' X.] 0.i.! ;.r.w.<.y.k.v.f.4.<.<.<.H t.y.f.s.z.r.*.p.7.C T Z ",
"0 i ' @.%.*.&.-.{ { 7.7.<.;.-.r.-.1.*.r.&.<.t.n.u.h.w.-.@.6.[ g ",
", m V ,.=.*.*.0.{ :.r.<.a.:.h.e.*.X.:.*.<.%.y.f.f.t.p.*.{ w.) Z ",
"i ` Q 7._ *.&.<.$.$.u.y.y.u.3.f.1.4.<.<.j.>.d.z.f.r.y.e.,.+.C G ",
"u m L ] 5.>.*.0.,.%.' 7.j.-.u.&.,.<.t.r.:.2.<.r.<.-.e.:.@.[ C k ",
"% l _ _ >.%._ { @.0.<.=.o.7.t.u.<.i.0.a.i.k.<.g.e.,.f./ / +.^ h ",
"9 p m J %.] *.=.{ =.] *.%.7.,.:.-.a.b.r.*.g.u.i.u.o.0.5.[ R T 5 ",
"* z n Q ..K _ _ =.] >.{ ] 7.*.] ;.o.,.7.o.l.g.7.#./ Q [ Q L G t ",
"> t j ' R 6.o.&.! ] O.! &.%.] *.} @.:.d.] >.i.f.e.' 7.@.+.#.Z v ",
"& i T m R U R H _ _ _ ! %._ X.~ %.[ :.o.,.0.6.s.,.7.O.) [ G Z n ",
"# x G b l B ' J X.R X.R Q %.:.,.{ O.&.! Y ' X...#.[ e.W #.|  .D ",
", h r k k B b m J J Q Y J K m K Q / ] Q n T ! B B ..G ) S W W 8 ",
"o 8 7 a r s s B f s s l l b f j B f b p F b a A M | v E d x x $ ",
". X O = ; $ = > e + > : > : & 9 9 1 - u > : = r 8 r s t r # o o "
};
