/* XPM */
static char *result[] = {
/* columns rows colors chars-per-pixel */
"32 32 239 2 ",
"   c black",
".  c #010101",
"X  c #020202",
"o  c gray1",
"O  c #040404",
"+  c gray2",
"@  c #060606",
"#  c #070707",
"$  c #080707",
"%  c gray3",
"&  c #090909",
"*  c #0A0909",
"=  c gray4",
"-  c #0B0A0A",
";  c #0C0C0B",
":  c #0E0D0D",
">  c #0E0E0E",
",  c #0F0E0E",
"<  c #11100F",
"1  c #111010",
"2  c #131111",
"3  c gray7",
"4  c #131212",
"5  c #141313",
"6  c #171716",
"7  c #181818",
"8  c #1C1B1A",
"9  c #1D1B1B",
"0  c #1D1A1C",
"q  c #1D1B1C",
"w  c #1D1C1C",
"e  c #211D1F",
"r  c #201F1F",
"t  c #221F1F",
"y  c #211F20",
"u  c #231F21",
"i  c #241F22",
"p  c #252224",
"a  c #272525",
"s  c #282727",
"d  c #2A2728",
"f  c #2D2A2B",
"g  c #302E2F",
"h  c #333030",
"j  c #363434",
"k  c #373636",
"l  c #393635",
"z  c #3F3837",
"x  c #3B3839",
"c  c #3D3939",
"v  c #3C3A39",
"b  c #3C3B3A",
"n  c #5F3141",
"m  c #613143",
"M  c #663248",
"N  c #474242",
"B  c #4D4649",
"V  c #4F4B4A",
"C  c #4E4B4B",
"Z  c #514D4C",
"A  c #504E4D",
"S  c #524E4D",
"D  c #534F4D",
"F  c #514C4F",
"G  c #555150",
"H  c #565352",
"J  c #585557",
"K  c #5A5556",
"L  c #5E5557",
"P  c #5B5458",
"I  c #5F5459",
"U  c #5D5B5B",
"Y  c #5F5B5B",
"T  c #744659",
"R  c #655959",
"E  c #61595E",
"W  c #696367",
"Q  c #726068",
"!  c #746B6B",
"~  c #736C6D",
"^  c #706C6E",
"/  c #726C6F",
"(  c #76706E",
")  c #796371",
"_  c #7B6F71",
"`  c #7C6E77",
"'  c #7E6F7F",
"]  c #7D7375",
"[  c #7D7678",
"{  c #8D6478",
"}  c #826E7A",
"|  c #80757B",
" . c #8A747D",
".. c #847A7A",
"X. c #867F7F",
"o. c #7E7183",
"O. c #877580",
"+. c #847683",
"@. c #957082",
"#. c #927583",
"$. c #9B748C",
"%. c #848182",
"&. c #8B8287",
"*. c #8C8284",
"=. c #8D868B",
"-. c #88848C",
";. c #8D8A88",
":. c #918A8A",
">. c #948D8A",
",. c #978A8C",
"<. c #9D8F8E",
"1. c #9E8996",
"2. c #9B9390",
"3. c #9F9497",
"4. c #A3838F",
"5. c #A7839D",
"6. c #A8879C",
"7. c #A99394",
"8. c #9C9FA8",
"9. c #A896A4",
"0. c #A39EA8",
"q. c #A59CAA",
"w. c #B092A6",
"e. c #B395AB",
"r. c #B596A8",
"t. c #B29CA8",
"y. c #A995B2",
"u. c #A7A4A9",
"i. c #BCA1AF",
"p. c #B6A9B1",
"a. c #B5AFB3",
"s. c #BDA9B0",
"d. c #B8ADB0",
"f. c #BFABB7",
"g. c #BDADB7",
"h. c #BEA3B9",
"j. c #BCA7BB",
"k. c #B8AFBB",
"l. c #BAB0B4",
"z. c #B8BBBF",
"x. c #BCB8BF",
"c. c #C0A4B4",
"v. c #C7B1BF",
"b. c #C7B9BD",
"n. c #B0A6C2",
"m. c #B0A9C1",
"M. c #BCACC1",
"N. c #BDADC8",
"B. c #B5B6C2",
"V. c #B8B9C6",
"C. c #B2B2CB",
"Z. c #B0B0CC",
"A. c #C3B1C3",
"S. c #C7B2C2",
"D. c #C7B2C3",
"F. c #C7B3C4",
"G. c #C4B1C7",
"H. c #C8B3C3",
"J. c #C9B4C2",
"K. c #CCB6C4",
"L. c #C1BDC0",
"P. c #C6BDC4",
"I. c #CCB9C3",
"U. c #CFBBC7",
"Y. c #CDBCC4",
"T. c #C3B6CF",
"R. c #C7BACF",
"E. c #CBBDCF",
"W. c #D0BAC9",
"Q. c #C9C0C0",
"!. c #CBC0C1",
"~. c #CAC5CD",
"^. c #D2C1C8",
"/. c #D1C6CB",
"(. c #D1C1CD",
"). c #D4C2CC",
"_. c #D7C6CF",
"`. c #D5CCCE",
"'. c #CDCBD1",
"]. c #D3C3D0",
"[. c #D4C4D0",
"{. c #D5C4D3",
"}. c #D1C4D4",
"|. c #D1C6D4",
" X c #D1C7D7",
".X c #D4C5D4",
"XX c #D9C6D2",
"oX c #DBC8D1",
"OX c #D8CAD1",
"+X c #D9C9D3",
"@X c #DCCED7",
"#X c #D4CCDE",
"$X c #DBCBD8",
"%X c #D8D7D5",
"&X c #D9D3D9",
"*X c #DDD0D9",
"=X c #DED1D8",
"-X c #DFD2DD",
";X c #DED4DE",
":X c #D9DADE",
">X c #E0D1DB",
",X c #E1D3DB",
"<X c #E0D7E1",
"1X c #E3DAE4",
"2X c #E6DDE5",
"3X c #EADEE7",
"4X c #E2E0E4",
"5X c #E8E1E5",
"6X c #E9E1E5",
"7X c #EAE1E6",
"8X c #ECE1E9",
"9X c #EDE4E9",
"0X c #ECE5E9",
"qX c #EDE4EA",
"wX c #ECE5EA",
"eX c #EDE7EA",
"rX c #ECE5ED",
"tX c #EFE7EC",
"yX c #ECE8E9",
"uX c #EDEBF0",
"iX c #F2ECF1",
"pX c #F0EDF2",
"aX c #F5F0F3",
"sX c #F5F2F2",
"dX c #F5F2F5",
"fX c #F5F3F5",
"gX c #F8F5F7",
"hX c #F9F6F7",
"jX c #F9F5F8",
"kX c #FAF7F8",
"lX c #FAF7F9",
"zX c #F9F8F8",
"xX c #FAF9FA",
"cX c #FBFAFB",
"vX c #FDFBFC",
"bX c #FEFEFE",
"nX c #FEFEFF",
"mX c #FFFEFF",
"MX c white",
/* pixels */
"                                                                ",
"                                                                ",
"                                                                ",
"                                                                ",
"                                                                ",
"                                                                ",
"                                                                ",
"      .   X   3 X     +                                         ",
"        p 0 P Q L z A ! h 2 %                                   ",
"    u } O.P.I.Y.4.l.`.%XQ.>.S a #                               ",
"  X ) K.9XXXkXlX$X<X;XMXzX4Xb.:.G X                             ",
"  i 1.,Xc.m U.vXMX].(.*X|.}. X/.;.-                             ",
". y %.8Xs.n i.gXMXS.w.v.2XJ.F.-X&.x 1 .                         ",
"    | 3XyX=X0XMXdXH.).^.+XMXwX@X9.z.c *                         ",
"    W g.MXMXMXbX1X{._.M { 6XMXoXE.V.[ 7                         ",
"    e E p.eXfXuXD.W.OXT @.7XMXtX#Xm.=.:                         ",
"      q I t.f.h.e.>XsX5XqXcXMXaXR.Z./ 8 ,                       ",
"      X 9 R #.6.5.r.hXmXMXMXnXrXN.C.7.2.( D 4 @ .               ",
"        X w _  .$..X[.iXxXjXpXT.n.q.~.'.:XL.u.Z 6               ",
"            < ~ !.&Xj.A.G.M.y.o.F ] 0.8.-.B.k.a.l >             ",
"            . j H X.d.` +.' B t 5   k O r v ^ x...U   .         ",
"                = $ b   g ; & o             @ f 3.K N = .       ",
"                                              O J *.,.<.s #     ",
"                                                  d C Y V O     ",
"                                                                ",
"                                                                ",
"                                                                ",
"                                                                ",
"                                                                ",
"                                                                ",
"                                                                ",
"                                                                "
};
