/* XPM */
static char *_37fbca814d14659d01edf3a5d7e5e920HnPKCHsx85zu70C[] = {
/* columns rows colors chars-per-pixel */
"32 32 87 1 ",
"  c #010101",
". c #080708",
"X c #0B0B0B",
"o c #141414",
"O c #181817",
"+ c #171718",
"@ c #171818",
"# c #1C1C1C",
"$ c #201F20",
"% c #1F2020",
"& c #232323",
"* c #282728",
"= c #272828",
"- c #2B2B2B",
"; c #343434",
": c #373837",
"> c #383837",
", c #3B3B3B",
"< c #403F3F",
"1 c #434343",
"2 c #484748",
"3 c #474848",
"4 c #4C4C4C",
"5 c #504F50",
"6 c #4F5050",
"7 c #535353",
"8 c #585758",
"9 c #5C5C5C",
"0 c #5F605F",
"q c #646464",
"w c #686767",
"e c #6C6C6C",
"r c #706F6F",
"t c #727272",
"y c gray47",
"u c #797979",
"i c #7C7C7C",
"p c #7D7C7C",
"a c #7F807F",
"s c #808080",
"d c #818181",
"f c #838383",
"g c #868686",
"h c #888988",
"j c #8A8B8A",
"k c #8B8B8B",
"l c #8D8D8D",
"z c gray56",
"x c #908F8F",
"c c #929292",
"v c #939393",
"b c gray59",
"n c #989898",
"m c #989899",
"M c gray61",
"N c #9F9F9F",
"B c #A0A09F",
"V c #A3A3A2",
"C c gray66",
"Z c #AAAAAA",
"A c #ABABAA",
"S c gray68",
"D c #AFAEAF",
"F c #B2B2B2",
"G c gray70",
"H c #B4B4B4",
"J c #B7B7B7",
"K c #B8B8B9",
"L c #BBBBBB",
"P c gray",
"I c #C0C1C0",
"U c #C3C3C2",
"Y c #C4C4C5",
"T c #C8C8C8",
"R c #CDCDCD",
"E c gray82",
"W c gray84",
"Q c #D7D7D7",
"! c #E2E3E2",
"~ c gray89",
"^ c #E4E4E4",
"/ c #E7E7E7",
"( c gray91",
") c #EBEBEA",
"_ c #ECEBEB",
"` c #EEEDED",
"' c #EEEEEE",
/* pixels */
"   ce     lM.,7&3urx9mqtG9b7+...",
"    +9   T  e.=&=,;;36<7loX     ",
"     !  dboO .1&3e89j1-4- X     ",
"   )EDP)/!84&@ .&1quu1&#& 9  )  ",
"   K9X    KM43cd4&4#,1&;4<34    ",
" OC.7      & X . ;-t-;,7de,&X.  ",
"#9%i.  @   1 &;#j;,-9;#=*qC4-qe;",
"#<&,.      -;o,,,3& #;e<>+@&=.+#",
";333633%##%7-qt<+#&&4  9cot3&,,;",
"7,7cjt48gr50733,o          X&e84",
"4,23147emqDJ9;=&            u;e4",
">53o. .+19;11i8=       ,  XJC. .",
"eo    #M-,&9X&9@7X;;l  X1V8o   9",
"      d;   #   dCnMIKYJD,g;31je-",
"            @oe&;.&3&1,4,y;  .) ",
"   c.!.    9gmmGIR(^Ul8;#Xoo    ",
"!PcCi;_W')Pbd=+        ;9M1eVlU/",
"elR98.         3         10go<  ",
"   1,Gt43t   Xj-  + 'm   .9&C.  ",
"     a7g .teCgV&9CV ;.    +t#o  ",
"W   Y,g    >Xm41..Xg X++@6q%1V3#",
"     _.;bp1jio7c,%#.%-7vty;-#X  ",
"  'D   +je7##;=#49;<8e1a1=,&:;JX",
" Oql   #. +#;&&,9lVsq,11il3&.1. ",
"7&   g 8,; X =3p,4#&&:,--t;x;@==",
";qwUU@@-ejtMm;-<4kc3V9w#==e;;##,",
"   V&geul7$,7o      83&#-&*7u,  ",
";ogoG+       Y          X#9b4a7,",
",et@+         l_          oo;8;,",
"s=-,t   e    =d91;       ooo+,l8",
"+@4# ;MI')'^UM9+  X     o9;,-&,*",
"+ ;;1^t ;   X19ct3=%#3;84;ccVeu&"
};
