/* XPM */
static char *_ad5f0d54a624630af57655843bfa65ac0QvPPZyiCKAo8F3[] = {
/* columns rows colors chars-per-pixel */
"32 32 141 2 ",
"   c #020200",
".  c #0D0C06",
"X  c #0F0E0B",
"o  c #171912",
"O  c #1C1C14",
"+  c #1F2217",
"@  c #212117",
"#  c #24241B",
"$  c #2B271C",
"%  c #252B1F",
"&  c #2A2A1C",
"*  c #232720",
"=  c #2C2D21",
"-  c #302F21",
";  c #263224",
":  c #2C3224",
">  c #2B3629",
",  c #2F3A2B",
"<  c #323324",
"1  c #393426",
"2  c #343529",
"3  c #3A362B",
"4  c #343B2B",
"5  c #3B3D2D",
"6  c #373634",
"7  c #353B32",
"8  c #3C3E33",
"9  c #3C3C39",
"0  c #413D2D",
"q  c #35402E",
"w  c #3D412F",
"e  c #374133",
"r  c #3C4232",
"t  c #3C4834",
"y  c #3E423A",
"u  c #424433",
"i  c #494634",
"p  c #404935",
"a  c #42453D",
"s  c #49463A",
"d  c #444A3C",
"f  c #494A3D",
"g  c #504D3F",
"h  c #4A503F",
"j  c #454644",
"k  c #444942",
"l  c #4B4C43",
"z  c #4C4C4B",
"x  c #504F4E",
"c  c #4E5247",
"v  c #4D5349",
"b  c #4E594A",
"n  c #515146",
"m  c #52534C",
"M  c #5C574D",
"N  c #535A4D",
"B  c #59594E",
"V  c #545453",
"C  c #5A5750",
"Z  c #565A53",
"A  c #5B5C53",
"S  c #5C5C5B",
"D  c #625E52",
"F  c #5C6155",
"G  c #5E635B",
"H  c #62635C",
"J  c #6A675C",
"K  c #64695E",
"L  c #69695D",
"P  c #5E5F60",
"I  c #636463",
"U  c #696763",
"Y  c #666964",
"T  c #6A6B64",
"R  c #676768",
"E  c #686768",
"W  c #6C6C6B",
"Q  c #6E716B",
"!  c #73736D",
"~  c #6F6F70",
"^  c #727272",
"/  c #737373",
"(  c #727571",
")  c #757572",
"_  c #747673",
"`  c #747474",
"'  c #767774",
"]  c #767676",
"[  c #777777",
"{  c #787773",
"}  c #757A72",
"|  c #757974",
" . c #7A7B74",
".. c #7D7D74",
"X. c #777778",
"o. c #787778",
"O. c #787978",
"+. c gray48",
"@. c #7B7B7B",
"#. c #7A7D79",
"$. c #797E79",
"%. c #7E7C7B",
"&. c #7C7C7C",
"*. c #7D7C7D",
"=. c #7E7E7E",
"-. c gray50",
";. c #807F7C",
":. c #7B807B",
">. c #7E807C",
",. c #81817F",
"<. c #808080",
"1. c gray51",
"2. c #838383",
"3. c #858483",
"4. c #848484",
"5. c gray52",
"6. c gray53",
"7. c #888785",
"8. c #868985",
"9. c #898985",
"0. c #898B87",
"q. c #888888",
"w. c gray54",
"e. c #8B8B8B",
"r. c #8D8F8D",
"t. c gray56",
"y. c #8F8F90",
"u. c gray57",
"i. c #929393",
"p. c gray59",
"a. c #999994",
"s. c #9A9A9A",
"d. c #9B9B9B",
"f. c #9C9C9D",
"g. c #9D9D9D",
"h. c gray62",
"j. c #A1A1A2",
"k. c #A2A2A2",
"l. c #A5A5A5",
"z. c #AAAAAB",
"x. c #BCBCBC",
/* pixels */
"Z j 8 k l N @.@.A u 5 4 4 # n a l 7 z V z 7 R ' e.t.~ *.7 Z G S ",
"@ x.t.Y 4 G W E V 8 H 9.$.4 # = 5 ; d S y 7 I W @.W P ~ . t.( Q ",
"# g.>.S < N -.Z z r ..W -.r ( +.:.W ( ! S ; S S S V z I   y.^ ( ",
"@ k.5.~ = : @ S 4 2 ! ` @.2 7.^ >.1.' S S % 6 x z x x z . k.5.W ",
"# g.X.@.X a.( ! @.V R <.-.; 1.W 1.-.$.V Z , E A $ H W S 5 l.1.Q ",
"@ 5.S ^   d.1.e.W -.S y.Q > ! V V V V j V e R S C 7.' S l u.E E ",
"< F A d o g.1.-.D X.P 4. .; a A S F B f y > I Z m 5.y.I l I z j ",
"d Y Z 8 5 -.W S E E P ` 4.2 n T G q b + o X x z 5 ' o.V z 9 z l ",
"5.W S W 5 : 5 r 5 5 ! W [ 1 U W I C H p.d.g.t.@.V Z H V >.| -.5.",
"-.( S M u @.^ T S r ! S q.$ ^ [ ~ n T W @.;.[ S G , < * Y I ^ -.",
"V E I m T W *.1.x A n T # 0 ! S x Z H ' -.5.4.S H 4 , > * Z V z ",
"u.q.S - W -.d.u.I l i u u u l l f 4 E ~ X.-.( S Z Z 1.y.-.v z 1.",
"1.E W - W 1.u.;.^ @ i 0 3 # @ # @ # H I I I I V S R ~ -.I T K W ",
"g.@.W < Y S S I W = u [ d.g.h.h.y.u.j ` [ ` ~ E S @.6.p.R Q K | ",
"u.W I : T ~ Z z z 5 5 ^ ~ [ *.+.^ *.: : % & # & : 4.e.p.I T Q -.",
"E z S 2 u < g D k 5 1 I V S S V x H , r +.a.u.( A 3./ e.D K >.R ",
"T H H < p p 5 L = $ * = j z V F V 7 5 r } ' ^ V A { 3.5.[ C U Y ",
"u ! ! ;.W t 8 z.g.g.k.l.a.,.< f F f G 7 Q ' X.V D n J T  .T J 2 ",
"J I E S T u 5 p.-.e.y.6.' I < } W ' I ( $.@.-.V H 1.W R W W -.r ",
"H @.t.W T u 5 u.D S S I ~ H < W *.<.Q Q | R R z B $.! @.( W ;.3 ",
"! 4.g.E ~ 5 t n I J D s 2 $ O u.~ ` P P K V V j B U | ,.4.~ 1.= ",
"Q 1.d.I ' q u u p t p.p.9.( @ 3.@.*.( G d F F Z 8 5.' 1.3.^ <.: ",
"^ W ^ V Y , , v G 5 e.' } S 2 r d G G G Q T  .:.a H ^ @.-.W R 4 ",
"T S V z S G u.y.V n ^ e.t.e.< ,.Q W ' *.>.:.Q P H H ~ W W W @.e ",
"Z W B F H T ( e.Y N -.1.5.^ 5  .W ' ;.@.Q W R S I Y $.@.@.-.,.2 ",
"r q s T C Q [ t.W C E S S ^ 2 Q ^ R W R S Y W Y 8 : e 7 4 4 4 r ",
"r 5 ,.W I I I E Z Z 5 H T n r < 2 : = < < = A 1.3.5.8.Q m 3 q w ",
"5 q 9.u.;.t F c v l p $.{ ! W ,.Q u.m 1.W 8 U @.e.e.1.S A 5 5 5 ",
"$ 1 &.t.1.t (  .f 5 C W ` *.@.W S ^ E ^ I Z H / ` E S z j $ 3 < ",
"e.M U 5.@.T Q R K 0 T E -.q.y.1.I ^ R ,.~ A @ ' R P S V ( 7.@.;.",
"! l 8.' G F @.^ S 5 l I I W ' ~ S ^ I ,.~ a v l l l l a H ( e.t.",
"S f 5.S S d 3.&.D 5 8 S I E S V z E S W V 9 @.W o.@.E V -.I ^ W "
};
